<?xml version="1.0" encoding="UTF-8"?>
<svg id="Layer_2" data-name="Layer 2" xmlns="http://www.w3.org/2000/svg" viewBox="0 0 643.62 615.28">
  <defs>
    <style>
      .cls-1 {
        fill: red;
        stroke: #000;
        stroke-miterlimit: 10;
        stroke-width: 2.93px;
      }

      .cls-2, .cls-3 {
        stroke-width: 0px;
      }

      .cls-3 {
        fill: #fff;
      }
    </style>
  </defs>
  <g id="Layer_1-2" data-name="Layer 1">
    <g>
      <path class="cls-2" d="M315.33,0c1.11,0,2.23,0,3.34,0,.71.52,1.54.3,2.31.31,8.6.17,17.16.75,25.7,1.74,9.17,1.06,18.26,2.61,27.26,4.68,18.68,4.3,36.63,10.66,53.73,19.34,25.76,13.08,48.74,29.97,68.93,50.65,13.97,14.31,25.91,30.16,35.9,47.48,10.58,18.36,18.66,37.78,24.48,58.14,5.12,17.89,8.52,36.07,8.73,54.75,0,.78.22,1.56.34,2.34v19.12c-.12,1.25-.3,2.5-.36,3.76-.19,3.97-.25,7.96-.52,11.93-.59,8.42-1.79,16.77-3.32,25.08-3.26,17.77-8.43,34.95-15.63,51.51-13.71,31.53-33.32,58.96-58.04,82.74-25.33,24.38-54.74,42.18-87.89,53.79-21.75,7.62-44.09,12.31-67.13,13.58-.7.04-1.39.25-2.08.38h-27.7c-.69-.13-1.38-.32-2.08-.38-2.22-.18-4.44-.31-6.67-.47-10.4-.78-20.71-2.24-30.94-4.31-16.44-3.32-32.33-8.33-47.64-15.19-13.48-6.04-26.14-13.52-38.33-21.82-20.66-14.07-39.07-30.61-54.85-50.04-18.93-23.3-32.9-49.32-42.56-77.7-5.37-15.79-9.41-31.88-11.58-48.45-1.3-9.89-1.87-19.81-2.07-29.76-.05-2.46.12-4.93.16-7.4.13-7.81.75-15.59,1.68-23.34,1.09-9.09,2.62-18.11,4.6-27.06,4.81-21.73,12.3-42.47,22.69-62.15,10.51-19.91,23.59-37.98,38.93-54.42,10.39-11.14,21.52-21.48,33.75-30.6,20.81-15.52,43.71-26.91,68.37-34.86,13.42-4.32,27.1-7.59,41.01-9.9,6.67-1.11,13.39-1.92,20.14-2.4,5.24-.37,10.49-.5,15.73-.75.53-.03,1.06-.2,1.59-.31ZM544.66,249.54c0-.72,0-1.43,0-2.15-.04-12.37-1.18-24.64-3.34-36.82-2.8-15.82-7.2-31.15-13.4-45.97-6.27-14.97-14.31-28.96-23.52-42.29-11.6-16.8-25.1-31.89-40.72-45.05-23.12-19.49-49.23-33.56-77.94-42.87-16.95-5.5-34.32-8.87-52.1-10.14-9.54-.68-19.09-.74-28.62-.23-9.22.49-18.38,1.58-27.49,3.13-11.39,1.94-22.6,4.63-33.52,8.41-25.44,8.81-48.59,21.77-69.52,38.7-18.26,14.77-33.83,32.04-47.42,51.16-17.93,25.24-28.91,53.32-34.29,83.69-1.08,6.11-1.94,12.26-2.58,18.44-.65,6.34-1.19,12.68-1.27,19.06-.08,5.89,0,11.78.4,17.67.36,5.49.89,10.96,1.68,16.39.97,6.61,2.06,13.21,3.24,19.79,1.38,7.76,3.08,15.45,5.5,22.97,3.67,11.39,8.37,22.35,13.84,32.98,10.69,20.77,24.39,39.34,40.9,55.84,9.99,9.98,20.85,18.93,32.36,27.13,20.7,14.74,43.3,25.44,67.82,32.06,11.15,3.01,22.47,5.16,33.94,6.53,7.75.93,15.52,1.59,23.32,1.77,7,.17,14,.15,21-.32,5.56-.37,11.1-.9,16.62-1.69,7.8-1.13,15.51-2.72,23.15-4.64,16.65-4.19,32.66-10.09,47.97-17.89,22.41-11.42,42.22-26.34,59.66-44.44,16.57-17.21,30.51-36.29,41.07-57.78,9.76-19.86,16.27-40.75,19.86-62.57,1.11-6.76,1.93-13.55,2.52-20.38.59-6.83.87-13.67.88-20.52Z"/>
      <path class="cls-3" d="M544.66,249.54c0,6.85-.29,13.69-.88,20.52-.59,6.83-1.41,13.62-2.52,20.38-3.59,21.82-10.1,42.71-19.86,62.57-10.56,21.49-24.5,40.57-41.07,57.78-17.43,18.11-37.25,33.02-59.66,44.44-15.3,7.8-31.32,13.69-47.97,17.89-7.64,1.92-15.35,3.52-23.15,4.64-5.51.8-11.05,1.32-16.62,1.69-7,.47-14,.49-21,.32-7.8-.18-15.57-.85-23.32-1.77-11.47-1.37-22.79-3.52-33.94-6.53-24.52-6.62-47.12-17.32-67.82-32.06-11.5-8.19-22.36-17.14-32.36-27.13-16.51-16.5-30.21-35.07-40.9-55.84-5.47-10.63-10.17-21.59-13.84-32.98-2.42-7.51-4.11-15.21-5.5-22.97-1.17-6.58-2.26-13.18-3.24-19.79-.8-5.43-1.32-10.9-1.68-16.39-.39-5.89-.47-11.77-.4-17.67.08-6.38.62-12.72,1.27-19.06.63-6.18,1.49-12.33,2.58-18.44,5.38-30.38,16.35-58.45,34.29-83.69,13.59-19.13,29.15-36.39,47.42-51.16,20.93-16.93,44.08-29.89,69.52-38.7,10.92-3.78,22.12-6.47,33.52-8.41,9.11-1.55,18.27-2.64,27.49-3.13,9.54-.51,19.08-.45,28.62.23,17.78,1.26,35.15,4.64,52.1,10.14,28.71,9.31,54.82,23.38,77.94,42.87,15.62,13.16,29.12,28.26,40.72,45.05,9.21,13.33,17.25,27.31,23.52,42.29,6.2,14.82,10.6,30.16,13.4,45.97,2.16,12.18,3.29,24.45,3.34,36.82,0,.72,0,1.43,0,2.15ZM115.83,252.69c.08,2.6.17,5.39.24,8.17.27,10.53,1.51,20.96,3.56,31.28,5.24,26.35,15.43,50.64,30.67,72.74,20.71,30.02,47.62,52.83,80.47,68.61,23.73,11.4,48.78,17.85,75.06,19.41,8.42.5,16.86.41,25.29-.21,10.1-.74,20.08-2.22,29.92-4.58,38.75-9.28,72.25-28.05,99.98-56.64,36.32-37.45,54.93-82.61,57.19-134.63.3-6.86-.17-13.69-.75-20.51-.74-8.82-2.05-17.54-3.88-26.2-4.85-22.96-13.28-44.5-25.69-64.42-22.08-35.44-52.39-61.42-90.49-78.33-19.8-8.78-40.53-14.07-62.08-16.12-6.97-.66-13.97-.87-20.98-.77-7.17.11-14.3.6-21.42,1.48-10.76,1.34-21.34,3.53-31.72,6.64-34.42,10.3-64.17,28.33-89.23,54.09-15.28,15.71-27.62,33.5-37,53.32-9.06,19.14-14.85,39.24-17.49,60.26-1.09,8.71-1.49,17.44-1.67,26.39Z"/>
      <path class="cls-2" d="M115.83,252.69c.18-8.94.58-17.68,1.67-26.39,2.63-21.02,8.43-41.12,17.49-60.26,9.38-19.82,21.71-37.61,37-53.32,25.05-25.76,54.81-43.79,89.23-54.09,10.38-3.11,20.96-5.3,31.72-6.64,7.12-.88,14.25-1.37,21.42-1.48,7.01-.11,14.01.1,20.98.77,21.55,2.05,42.29,7.34,62.08,16.12,38.1,16.9,68.41,42.89,90.49,78.33,12.41,19.92,20.84,41.47,25.69,64.42,1.83,8.65,3.13,17.38,3.88,26.2.58,6.83,1.04,13.66.75,20.51-2.26,52.02-20.87,97.19-57.19,134.63-27.73,28.6-61.23,47.37-99.98,56.64-9.84,2.35-19.82,3.83-29.92,4.58-8.43.62-16.86.71-25.29.21-26.28-1.56-51.32-8.01-75.06-19.41-32.85-15.78-59.76-38.58-80.47-68.61-15.25-22.11-25.44-46.4-30.67-72.74-2.05-10.32-3.3-20.75-3.56-31.28-.07-2.79-.16-5.57-.24-8.17ZM317.96,431.47c5.42.05,10.82-.29,16.21-.78,8.34-.76,16.56-2.18,24.67-4.19,24.01-5.95,45.96-16.33,65.79-31.12,23.47-17.49,41.73-39.34,54.35-65.8,11.57-24.26,16.91-49.94,17.19-76.73.08-7.33-.36-14.64-1.17-21.93-.94-8.4-2.45-16.69-4.55-24.87-13.89-54.06-52.23-98.35-103.72-119.8-16.04-6.68-32.71-10.91-49.99-12.76-8.64-.92-17.29-1.31-25.97-1.09-8.93.23-17.79,1.11-26.56,2.76-17.08,3.2-33.32,8.87-48.72,16.94-16.91,8.86-32.06,20.11-45.48,33.69-17.51,17.72-31,38.09-40.28,61.23-6.77,16.9-10.83,34.45-11.94,52.63-.92,15.08.07,30.08,2.89,44.93,3.33,17.47,8.97,34.15,17.18,49.93,14.67,28.23,35.26,51.14,62.02,68.36,29.85,19.21,62.72,28.22,98.07,28.61Z"/>
      <path class="cls-3" d="M317.96,431.47c-35.35-.39-68.22-9.4-98.07-28.61-26.76-17.22-47.35-40.13-62.02-68.36-8.2-15.78-13.85-32.47-17.18-49.93-2.83-14.86-3.81-29.85-2.89-44.93,1.11-18.18,5.16-35.72,11.94-52.63,9.27-23.14,22.76-43.51,40.28-61.23,13.42-13.58,28.57-24.83,45.48-33.69,15.4-8.07,31.64-13.74,48.72-16.94,8.77-1.64,17.63-2.53,26.56-2.76,8.68-.22,17.33.17,25.97,1.09,17.28,1.85,33.95,6.08,49.99,12.76,51.49,21.45,89.83,65.74,103.72,119.8,2.1,8.18,3.62,16.47,4.55,24.87.81,7.29,1.25,14.6,1.17,21.93-.28,26.79-5.63,52.47-17.19,76.73-12.62,26.47-30.89,48.31-54.35,65.8-19.83,14.78-41.77,25.17-65.79,31.12-8.12,2.01-16.34,3.43-24.67,4.19-5.39.49-10.79.82-16.21.78ZM316.78,376.47c2.39-.12,4.22-.22,6.05-.3,7.65-.31,15.19-1.41,22.63-3.21,14.45-3.5,27.76-9.59,40.17-17.73,4.33-2.84,8.5-5.89,12.53-9.14,3.19-2.58,5.82-5.62,7.75-9.28,1.44-2.75,1.66-5.63,1.03-8.59-.82-3.83-3.34-6.09-7.24-6.53-2.6-.3-5.1.09-7.36,1.45-1.29.77-2.53,1.66-3.72,2.58-1.39,1.07-2.69,2.24-4.05,3.35-8.17,6.68-16.95,12.38-26.6,16.69-11.99,5.35-24.52,8.21-37.67,8.44-9.85.17-19.52-1.11-29.05-3.47-13.51-3.36-25.97-8.99-37-17.59-2.63-2.05-5.11-4.3-7.61-6.52-2.17-1.93-4.52-3.53-7.37-4.23-3.37-.83-6.47-.29-9.22,1.92-1.45,1.16-2.58,2.59-3.41,4.25-1.05,2.11-1.22,4.3-.26,6.46.54,1.23,1.22,2.42,2,3.51,2.32,3.26,5.09,6.12,8.2,8.62,13.35,10.75,28.16,18.76,44.58,23.72,8.86,2.68,17.92,4.33,27.13,5.14,3.01.26,6.03.35,8.49.48ZM285.24,167.41c.03-1.63-.32-3.25-1.04-4.79-.89-1.9-2.34-3.17-4.36-3.8-2.98-.93-5.84-.75-8.49.93-1.88,1.19-3.74,2.43-5.48,3.81-2.37,1.88-4.62,3.91-6.91,5.88-1.94,1.67-3.98,3.17-6.33,4.22-4.13,1.83-8.07,1.47-11.77-1.08-1.17-.81-2.25-1.77-3.3-2.74-2.34-2.16-4.59-4.41-6.97-6.52-1.24-1.1-2.61-2.12-4.05-2.92-3.19-1.77-6.61-2.29-10.14-1.2-3.27,1.01-5.16,3.29-5.68,6.69-.41,2.62.07,5.04,1.43,7.33,1.79,3.03,3.92,5.8,6.21,8.46,1.4,1.63,2.83,3.24,4.21,4.89,1.44,1.71,2.68,3.55,3.53,5.64,1.38,3.38,1.21,6.68-.48,9.91-.97,1.85-2.27,3.45-3.73,4.93-1.39,1.42-2.8,2.83-4.15,4.29-1.79,1.93-3.37,4.02-4.79,6.24-2.06,3.22-2.45,6.68-1.66,10.32.58,2.7,2.13,4.56,4.81,5.43,2.85.92,5.63.96,8.32-.52,1.25-.69,2.52-1.37,3.68-2.21,1.99-1.45,3.92-2.99,5.83-4.55,1.54-1.26,3-2.61,4.52-3.9,1.58-1.35,3.27-2.52,5.16-3.42,3.9-1.87,7.72-1.71,11.38.55,1.35.83,2.59,1.84,3.79,2.88,1.08.94,2,2.05,3.03,3.04,2.46,2.37,4.85,4.84,7.46,7.05,3.58,3.04,8.77,3.19,12.69.62,1.95-1.27,3.21-3.03,3.84-5.28.75-2.68.41-5.26-.87-7.64-1.09-2.02-2.36-3.97-3.72-5.82-1.42-1.92-3.06-3.67-4.59-5.5-1.17-1.4-2.36-2.8-3.49-4.24-1.13-1.45-2.04-3.03-2.7-4.76-1.27-3.33-1.06-6.58.67-9.67.73-1.31,1.67-2.52,2.64-3.67,1.03-1.21,2.21-2.29,3.32-3.43,2.23-2.28,4.29-4.71,5.93-7.46,1.46-2.44,2.34-5.05,2.29-7.99ZM347.72,224.43c.2,1.33.31,2.69.63,3.99.47,1.94,1.56,3.51,3.41,4.37,2.77,1.29,5.63,1.72,8.54.48.95-.4,1.9-.84,2.75-1.41,1.98-1.33,3.95-2.69,5.81-4.17,2.18-1.73,4.24-3.61,6.36-5.43,1.7-1.46,3.51-2.75,5.56-3.67,3.76-1.7,7.42-1.49,10.98.57,1.59.92,3.03,2.05,4.33,3.36,2.07,2.09,4.11,4.22,6.23,6.27,1.43,1.38,2.88,2.77,4.47,3.94,3.47,2.56,8.45,2.55,12.13.11,3.3-2.18,4.77-6.02,3.86-10.28-.22-1-.58-2-1.07-2.9-.79-1.47-1.64-2.92-2.64-4.25-1.42-1.91-2.99-3.72-4.51-5.57-1.47-1.78-2.99-3.52-4.43-5.32-1.2-1.5-2.15-3.16-2.82-4.97-1.17-3.16-1.07-6.27.51-9.24.7-1.32,1.61-2.56,2.55-3.73.84-1.05,1.86-1.96,2.81-2.93,2.18-2.22,4.26-4.51,5.99-7.12.97-1.47,1.81-2.99,2.34-4.68.9-2.9.99-5.79-.13-8.66-.66-1.69-1.69-3.1-3.36-3.87-2.97-1.36-5.99-1.52-8.98-.01-.92.47-1.79,1.04-2.65,1.61-2.99,1.98-5.75,4.27-8.43,6.65-1.31,1.16-2.62,2.33-3.99,3.42-1.69,1.34-3.55,2.4-5.6,3.13-3.19,1.12-6.28.89-9.22-.73-1.24-.68-2.38-1.58-3.5-2.47-.81-.64-1.51-1.42-2.26-2.13-2.03-1.91-4.04-3.83-6.11-5.7-1.36-1.23-2.84-2.31-4.52-3.08-3-1.37-6.09-1.81-9.29-.87-3.09.91-5,2.94-5.72,6.11-.6,2.61-.28,5.05,1.02,7.38,1.63,2.94,3.62,5.62,5.79,8.17,1.55,1.82,3.18,3.57,4.66,5.44,1.18,1.49,2.33,3.05,3.23,4.72,2.23,4.14,2.05,8.28-.54,12.21-1,1.52-2.24,2.89-3.46,4.24-1.44,1.6-3,3.08-4.45,4.67-1.72,1.89-3.25,3.92-4.49,6.16-1.05,1.91-1.79,3.91-1.76,6.16Z"/>
      <path class="cls-2" d="M316.78,376.47c-2.45-.13-5.48-.22-8.49-.48-9.21-.81-18.27-2.46-27.13-5.14-16.42-4.97-31.23-12.98-44.58-23.72-3.11-2.51-5.88-5.37-8.2-8.62-.78-1.09-1.46-2.28-2-3.51-.96-2.16-.79-4.35.26-6.46.83-1.66,1.96-3.09,3.41-4.25,2.74-2.2,5.85-2.75,9.22-1.92,2.86.71,5.2,2.31,7.37,4.23,2.5,2.22,4.98,4.47,7.61,6.52,11.02,8.6,23.48,14.23,37,17.59,9.53,2.37,19.2,3.64,29.05,3.47,13.15-.23,25.68-3.09,37.67-8.44,9.65-4.3,18.44-10,26.6-16.69,1.35-1.11,2.66-2.28,4.05-3.35,1.2-.92,2.43-1.8,3.72-2.58,2.26-1.36,4.76-1.74,7.36-1.45,3.89.45,6.42,2.7,7.24,6.53.63,2.96.41,5.84-1.03,8.59-1.92,3.66-4.55,6.7-7.75,9.28-4.02,3.25-8.2,6.3-12.53,9.14-12.41,8.14-25.72,14.23-40.17,17.73-7.44,1.8-14.98,2.9-22.63,3.21-1.83.07-3.65.18-6.05.3Z"/>
      <path class="cls-2" d="M285.24,167.41c.05,2.95-.82,5.56-2.29,7.99-1.65,2.75-3.7,5.17-5.93,7.46-1.11,1.14-2.29,2.22-3.32,3.43-.97,1.15-1.91,2.36-2.64,3.67-1.73,3.09-1.93,6.34-.67,9.67.66,1.73,1.57,3.31,2.7,4.76,1.12,1.44,2.31,2.84,3.49,4.24,1.53,1.83,3.17,3.59,4.59,5.5,1.37,1.85,2.63,3.8,3.72,5.82,1.29,2.38,1.62,4.96.87,7.64-.63,2.25-1.89,4.01-3.84,5.28-3.92,2.56-9.11,2.41-12.69-.62-2.61-2.21-4.99-4.68-7.46-7.05-1.03-.99-1.95-2.11-3.03-3.04-1.2-1.04-2.45-2.05-3.79-2.88-3.67-2.26-7.48-2.42-11.38-.55-1.88.9-3.58,2.07-5.16,3.42-1.51,1.29-2.98,2.65-4.52,3.9-1.91,1.56-3.84,3.1-5.83,4.55-1.15.84-2.43,1.52-3.68,2.21-2.68,1.48-5.47,1.45-8.32.52-2.68-.87-4.23-2.73-4.81-5.43-.79-3.65-.4-7.1,1.66-10.32,1.42-2.23,3-4.31,4.79-6.24,1.35-1.46,2.76-2.87,4.15-4.29,1.46-1.48,2.76-3.08,3.73-4.93,1.69-3.23,1.86-6.52.48-9.91-.85-2.09-2.09-3.93-3.53-5.64-1.38-1.65-2.81-3.26-4.21-4.89-2.29-2.66-4.42-5.43-6.21-8.46-1.36-2.3-1.84-4.71-1.43-7.33.53-3.4,2.41-5.68,5.68-6.69,3.53-1.09,6.96-.57,10.14,1.2,1.45.81,2.81,1.82,4.05,2.92,2.38,2.11,4.63,4.37,6.97,6.52,1.05.97,2.13,1.93,3.3,2.74,3.7,2.54,7.64,2.91,11.77,1.08,2.36-1.05,4.4-2.54,6.33-4.22,2.29-1.98,4.54-4,6.91-5.88,1.74-1.38,3.6-2.62,5.48-3.81,2.65-1.68,5.52-1.85,8.49-.93,2.03.63,3.47,1.9,4.36,3.8.72,1.53,1.08,3.16,1.04,4.79Z"/>
      <path class="cls-2" d="M347.72,224.43c-.03-2.25.71-4.26,1.76-6.16,1.24-2.24,2.77-4.28,4.49-6.16,1.45-1.59,3.01-3.07,4.45-4.67,1.22-1.36,2.46-2.73,3.46-4.24,2.6-3.93,2.78-8.07.54-12.21-.9-1.67-2.05-3.22-3.23-4.72-1.48-1.87-3.11-3.62-4.66-5.44-2.17-2.55-4.16-5.23-5.79-8.17-1.29-2.34-1.61-4.78-1.02-7.38.73-3.17,2.64-5.2,5.72-6.11,3.2-.94,6.3-.5,9.29.87,1.68.77,3.16,1.85,4.52,3.08,2.06,1.87,4.08,3.8,6.11,5.7.75.71,1.45,1.49,2.26,2.13,1.12.88,2.26,1.78,3.5,2.47,2.94,1.62,6.03,1.85,9.22.73,2.05-.72,3.91-1.78,5.6-3.13,1.37-1.09,2.68-2.26,3.99-3.42,2.68-2.38,5.44-4.67,8.43-6.65.86-.57,1.73-1.15,2.65-1.61,2.98-1.51,6.01-1.35,8.98.01,1.67.77,2.71,2.18,3.36,3.87,1.12,2.87,1.04,5.76.13,8.66-.53,1.69-1.37,3.22-2.34,4.68-1.72,2.6-3.8,4.9-5.99,7.12-.95.96-1.96,1.88-2.81,2.93-.94,1.17-1.85,2.4-2.55,3.73-1.58,2.97-1.68,6.08-.51,9.24.67,1.81,1.62,3.47,2.82,4.97,1.44,1.8,2.96,3.54,4.43,5.32,1.52,1.84,3.08,3.65,4.51,5.57.99,1.34,1.85,2.79,2.64,4.25.48.9.85,1.9,1.07,2.9.92,4.26-.55,8.1-3.86,10.28-3.68,2.43-8.66,2.45-12.13-.11-1.59-1.18-3.04-2.56-4.47-3.94-2.12-2.05-4.16-4.17-6.23-6.27-1.3-1.31-2.73-2.43-4.33-3.36-3.56-2.06-7.22-2.27-10.98-.57-2.05.93-3.86,2.21-5.56,3.67-2.11,1.82-4.18,3.69-6.36,5.43-1.87,1.48-3.84,2.83-5.81,4.17-.85.57-1.8,1.01-2.75,1.41-2.91,1.24-5.77.81-8.54-.48-1.85-.86-2.94-2.43-3.41-4.37-.31-1.31-.42-2.66-.63-3.99Z"/>
      <g>
        <path class="cls-1" d="M36.22,414.29c1.85-1.45,3.71-2.9,6.17-4.69-1.83.03-2.99.06-4.16.09-.91.01-1.72.22-2.58.59-4.48,1.94-8.97,3.87-13.19,6.3-2.71,1.56-5.64,2.47-8.41,3.93-.3.17-.71.15-1.06.23-.15-.04-.36-.18-.41-.28s0-.25.04-.41c.25-.52.75-.81,1.2-1.2,2.91-2.18,5.97-4.07,9.09-5.86,1.81-1.04,3.62-2.08,5.22-3.51.45-.39.44-.89-.01-1.01-1.47-.3-2.95-.61-4.47-.75-.56-.06-1.21.19-1.87.44-2.17.61-4.29,1.31-6.41,2.02-.81.21-1.62.42-2.42.63-.35.08-.71.15-.86-.14-.36-.43.09-.82.44-1.15,1.5-1.37,3-2.75,4.5-4.12.35-.33.65-.75.44-1.15-.36-.43-.92-.49-1.57-.25-.66.25-1.26.6-1.86.94-3.07,1.63-6.14,3.27-9.21,4.9-.6.35-1.26.59-1.91.84-.45.13-1.01.32-1.32,0-.31-.33-.01-.76.34-1.09.7-.66,1.4-1.31,2.15-1.87,3.31-2.41,6.67-4.72,9.93-7.23,3.91-3.01,8.13-5.69,12.35-8.37,5.88-3.76,11.96-7.12,17.84-10.88,6.08-3.87,12.31-7.45,18.44-11.23,1.01-.58,2.01-1.15,3.07-1.63,1.46-.71,2.38-.47,3.15.49,2.64,3.47,4.67,7.28,5.6,11.73.33,1.85.46,3.82.34,5.81-.16,2.9-1.28,5.72-3.33,8.29-1.14,1.55-2.44,3.06-4.04,4.24-4.16,3.28-8.42,6.37-13.36,8.44-3.12,1.28-6.14,3.02-9.26,4.55-1.36.65-2.67,1.4-4.08,1.96-1.56.51-3.13,1.03-4.69,1.8-.4.23-.86.36-1.31.5-.35.08-.81.21-.96-.08-.26-.49.24-.78.64-1.01.35-.33.75-.56,1.1-.89l.71.1ZM48.01,392.07c-1.86.94-3.62,2.08-5.43,3.12-1.51.87-3.02,1.73-4.53,2.6-.4.23-.8.46-1.15.79-.3.17-.19.62.21.64,4.12.83,8.06.1,11.92-2.76,1.1-.89,1.75-1.9,1.88-3.12.18-1.64-.95-2.27-2.61-1.44l-.3.17Z"/>
        <path class="cls-1" d="M61.99,456.49c.97-1.04,1.93-2.09,2.9-3.13-2.05.35-3.91.98-5.76,1.6-1.27.44-2.43,1.21-3.59,1.99-5.02,3.4-10.34,6.19-15.52,9.16-.18.15-.37.29-.52.27-.16-.02-.31-.03-.38-.12-.07-.09-.1-.34-.01-.41.21-.31.42-.61.63-.92,2.03-2.16,4.12-4.23,6.43-6.19,1.65-1.3,3.01-2.79,4.71-4.41-1.04-.44-1.87-.77-2.6-1.18-.73-.41-1.28-.96-2.01-1.36-.29-.2-.69-.16-1.1-.12s-.84.24-1.33.35c-.74.17-1.61.57-1.97-.13-.36-.69.3-1.36.72-1.97.45-.77,1.18-1.35,1.31-2.16.05-.32.01-.57-.12-.75-.13-.18-.44-.21-.63-.07-.95.47-1.91.94-2.8,1.5-2.57,1.61-5.25,2.88-8.02,4.22-.09.07-.31-.03-.47-.05-.29-.19-.23-.52-.05-.66.78-.9,1.57-1.8,2.42-2.61,1.49-1.32,2.85-2.81,4.21-4.3,1.27-1.42,2.54-2.84,4-4,.37-.29.73-.58,1.03-.95.97-1.04,1.7-2.6,1.23-2.65-.85-.17-1.58.4-2.29.82-1.04.54-1.96,1.27-3.04,1.56-.16-.02-.38-.12-.44-.21-.06-.09-.1-.34-.01-.41,2.33-2.54,4.3-5.36,6.98-7.61.82-.65,1.65-1.3,2.47-1.95,3.36-2.51,6.39-5.46,9.49-8.33,2.43-2.2,4.8-4.49,7.36-6.51,5.06-4.13,10.21-8.33,15.59-12.02.89-.56,1.78-1.12,2.8-1.5,1.67-.48,3.08-.33,4.09.85,1.62,1.81,2.87,3.91,4.21,5.94.26.36.34.86.51,1.28.38,1.11.06,2.06-.97,3.01-.27.22-.55.43-.82.65-3.82,2.87-7.5,5.92-11.45,8.61-2.23,1.48-4.34,3.14-6.31,4.98-3.19,2.94-6.64,5.52-9.54,8.65-1.27,1.42-2.54,2.84-3.45,4.55-.24.47-.38.86-.12,1.22.19.27.6.23.94.1.68-.26,1.36-.51,2.06-.93,5.44-3.02,10.87-6.05,15.94-9.77,3.72-2.8,7.52-5.51,11.24-8.3,1.74-1.37,3.61-2.56,5.41-3.85,1.62-1.14,2.9-1.17,4.09-.14.35.28.61.64.87,1,1.17,1.6,2.35,3.2,3.43,4.88.33.44.47,1.03.7,1.55.55,1.53.06,3.04-1.27,4.37-.76.74-1.58,1.39-2.41,2.04-7.14,5.63-14.34,11.17-21.47,16.8-2.47,1.95-5.05,3.56-7.62,5.17-2.48,1.54-5.03,2.98-7.58,4.43-.27.22-.55.43-.8.49-.43.2-.95.47-1.21.11-.33-.44.16-.97.55-1.41l-.63-1.05Z"/>
        <path class="cls-1" d="M69.17,493.17c0-.16,0-.33.01-.65-1.35.8-2.07,1.74-2.87,2.59-1.2,1.28-2.4,2.57-3.68,3.77-.56.6-1.2,1.12-1.83,1.64-.32.18-.71.28-1.02-.03-.23-.23-.15-.65.02-.98.4-.59.81-1.18,1.21-1.77,2.41-3.22,4.83-6.44,7.47-9.43.16-.17.24-.42.4-.59.08-.25,0-.33-.15-.32-1.5.15-1.73-.08-.92-1.42,1.22-2.26,2.82-4.3,4.51-6.26,3.93-4.52,8.01-8.88,11.79-13.56,3.29-4,7.05-7.69,10.11-11.92.88-1.1,1.92-2.05,2.88-3.08,1.92-2.05,3.84-4.11,5.61-6.32,1.93-2.38,4.32-4.45,6.63-6.45,2.15-1.82,3.96-1.99,5.75-.69.62.46,1.16,1.01,1.7,1.55,1.86,1.7,3.79,3.32,5.49,5.04,2.09,2.1,4.33,4.19,5.69,7.07,2.05,4.39,1.73,9.06-1.11,14.17-1.62,3.02-3.79,5.49-6.34,7.57-1.59,1.22-3.19,2.44-4.78,3.5-4.37,2.91-8.8,4.27-13.34,3.67-.78-.13-1.57-.09-2.36-.05-.47.02-.79.36-.72.77.36,2.02.72,4.05,1.07,6.07.37,1.53.81,2.98,1.26,4.43.29,1.13-.12,2.21-1.15,2.99-2.71,2.26-5.42,4.35-8.51,5.72-.48.19-.95.37-1.34.31-1.34-.02-2.45.69-3.49,1.64-1.68,1.47-3.35,2.94-5.03,4.41-1.27,1.04-2.55,2.08-3.75,3.04-.24.26-.71.44-.95.21-.47-.3-.3-.8-.06-1.22.73-1.1,1.45-2.19,2.18-3.29,2.09-2.88,4.19-5.76,6.28-8.63.64-.85.97-1.68.83-2.65-.07-.73-.53-1.03-1.25-.59-.88.61-1.75,1.23-2.63,1.84-.79.53-1.51,1.14-2.31,1.66-.32.18-.72.44-.94.05-.16-.16-.07-.57.01-.82.33-.67.73-1.42,1.21-2.1,1.29-2.02,2.51-4.12,3.95-5.99,1.69-2.29,1.49-4.32,1.05-6.42-.07-.4-.62-.62-1.02-.36-.56.44-1.11.87-1.6,1.38-3.2,3.26-6.63,6.28-10.14,9.23-.88.78-1.83,1.48-2.86,1.94-.79.36-1.02.13-.93-.77l-.08.09ZM105.22,462.02c-1.68,1.47-3.35,2.94-5.03,4.41-.56.6-1.12,1.2-1.68,1.8-.4.43-.25,1.07.22,1.05,1.89.07,3.85-.11,5.83-.77,1.03-.3,1.98-1,2.86-1.77.8-.69,1.21-1.61,1.22-2.59.1-1.07-.36-1.86-.98-2.48-.85-.69-1.48-.66-2.52.29l.08.08Z"/>
        <path class="cls-1" d="M107.43,519.87c.07-.1-.02-.16-.11-.23-1.39,1.6-2.78,3.21-4.26,4.74-.56.61-1.21,1.15-1.79,1.6-.22.13-.62.12-.79-.01-.17-.13-.21-.46-.16-.71.03-.42.14-.77.26-1.13.69-1.55,1.28-3.16,2.15-4.57,4.15-7.04,8.38-14.02,13.38-20.57,3.29-4.3,6.22-8.87,9.34-13.3,4.06-5.78,8.12-11.57,12.18-17.35.68-.96,1.35-1.93,2.12-2.83.76-.9,1.74-1.34,2.66-.94,5.16,2.13,9.99,4.75,13.35,9.64,1.74,2.64,2.51,5.73,2.38,9.32-.05,1.59-.42,3.07-1.04,4.52-.48,1.26-1.05,2.45-1.62,3.64-.87,2-2.18,3.67-3.85,4.91-2.45,1.98-4.72,4.25-6.98,6.53-.43.42-.85.83-1.36,1.18-.36.32-.86.09-.83-.33-.02-.16.03-.42,0-.58.03-.42.5-1.09-.07-1.23-.72-.11-1.5.05-2.13.75-.13.19-.16.62-.06.84.16.71.33,1.43.49,2.14.83,2.99.1,6.12-1.6,9.11-1.5,2.7-3.34,5.14-5.75,6.86-.74.48-1.45,1.12-2.01,1.73-2.63,3.18-5.54,5.99-8.34,9.04-.76.9-1.44,1.86-2.2,2.76-.49.51-1.07.96-1.65,1.41-.07.1-.31.06-.4,0s-.11-.23-.13-.39c.08-.68.48-1.26.8-1.9.98-1.77,1.95-3.54,2.93-5.31.32-.64.64-1.29.96-1.93.32-.64.19-1.03-.45-1.07s-1.28-.08-1.92-.12c-.88-.07-1.7.34-2.48,1.07-.78.74-1.57,1.47-2.35,2.21-.36.32-.71.64-1.07.96-.36.32-.87.67-1.22.41-.43-.33-.2-1.04.05-1.59.3-.81.69-1.55.98-2.35.73-1.8.59-2.36-.83-2.99-.33-.1-.66-.2-.99-.3-.74-.27-1.43-.05-2.15.59-2.73,2.36-5.43,4.89-7.6,7.98-.74,1.06-1.49,2.12-2.51,2.82-.07.1-.31.06-.4,0-.09-.07-.11-.23-.13-.39.19-1.03.89-1.84,1.43-2.61,2.5-3.57,4.42-7.43,5.83-11.53l-.06-.49ZM125.13,509.65c-2-1.51-3.15-1.2-5.34,1.72-.13.19-.54.77-.86,1.42-.45.84-.29,1.55.37,1.75.99.3,2.11.41,3.28.26,1.01-.12,1.9-.62,2.69-1.36.92-.93,1.09-2.12.42-3.07-.19-.29-.45-.49-.71-.69l.15-.03ZM135.54,490.08c-.56.61-1.12,1.22-1.61,1.73-.27.39-.47.68-.59,1.03-.25.55-.13.94.29,1.1,1.89.54,3.83.24,5.76-.81.45-.26.7-.8.72-1.22.05-1.59-.91-2.31-2.07-2.74-.92-.4-1.83-.05-2.59.84l.09.07Z"/>
        <path class="cls-1" d="M146.99,532.21c2.89-6.92,6.16-13.63,9.61-20.23,2.08-3.98,4.17-7.96,6.63-11.73,3-4.55,6.52-8,11.02-9.8,1.64-.57,3.22-.76,4.76-.44,1.98.44,3.9.98,5.82,1.52.87.22,1.57.75,2.27,1.28,1.96,1.64,3.4,3.81,4.52,6.35,1.2,2.85,1.17,5.95.05,9.26-1.63,4.51-3.5,9.02-5.84,13.26-.99,1.89-2.07,3.72-3.25,5.5-1.49,2.14-2.79,4.4-4.09,6.65-2.16,3.67-4.33,7.33-6.4,11.05-2.24,4.03-4.98,7.64-7.67,11.14-.11.21-.31.36-.52.52-.46.42-.98.94-1.6.72-.62-.22-.48-.95-.4-1.58.01-.26.12-.47.08-.63.09-.63.73-1.62-.04-1.79-.68-.11-.98.94-1.31,1.57-2.2,3.51-4.41,7.01-6.61,10.52-.11.21-.31.37-.52.52-.06.11-.2.16-.2.16-.09-.05-.28-.16-.23-.26.13-.47.25-.94.47-1.36,1.36-3.3,2.72-6.61,4.18-9.86,1.07-2.52,2.15-5.03,3.03-7.65.7-2.05,1.75-4.04,2.69-6.08.84-1.83,1.77-3.61,2.7-5.4.27-.52.55-1.05.73-1.62.13-.47.16-1-.22-1.21-.38-.21-.79.1-1.1.46-1.05,1.31-2.1,2.61-3.16,3.92-.31.36-.63.73-.94,1.1-.26.26-.79.1-.72-.27.08-.63.22-1.37.36-2.1.43-1.52.86-3.04,1.19-4.62.01-.26-.16-.63-.35-.74s-.64.05-.75.26c-1.28,1.99-2.48,4.03-3.76,6.02-.86,1.41-1.82,2.77-2.68,4.19-.59.89-1.27,1.73-2.09,2.35-1.23.94-2.03,2.25-2.71,3.77-1.11,2.36-2.7,4.45-4.09,6.65-.33.63-.75,1.2-1.31,1.57-.35.21-.83-.06-.76-.43.06-1.05.61-2.1,1.01-3.1.74-1.89,1.49-3.78,2.23-5.66.34-.89.33-1.57-.07-2.21-.36-.48-.85-.48-1.18.15-.49.94-.99,1.88-1.57,2.78-.22.42-.53.78-.85,1.15-.11.21-.54.1-.53-.16.09-.63.17-1.26.35-1.84,1.38-4.51,2.77-9.03,4.58-13.43l-.77-.16ZM171.62,522.62c.18-.58.62-1.42.81-2.26.44-1.78-.25-3.26-1.65-3.64-2.21-.7-4.1.81-5.27,3.27-.33.63-.26,1.21.15,1.58,1.22.96,2.43,1.91,3.7,2.76.51.43,1.17.11,1.64-.57.16-.31.33-.63.6-1.15Z"/>
        <path class="cls-1" d="M213.43,584.72c-.79-.04-.2-1.09-.82-1.95-1.04,3.03-1.96,5.73-2.88,8.43-.38,1.12-.87,2.21-1.66,3.18-.18.19-.46.34-.7.38-.34,0-.43-.41-.42-.79.27-1.8.54-3.6.92-5.36.53-2.21,1.19-4.49,1.86-6.78.24-1.05.59-2.06.59-3.07-.44-.04-.6.41-.88.56-.6.41-1.11.23-1.08-.52.07-.86.13-1.72.3-2.55.39-2.13.91-4.35,1.75-6.44.75-1.87.64-3.56.19-5.24-.06-.15-.23-.34-.33-.37-.1-.04-.28.15-.32.26-.88,1.57-1.56,3.22-2.13,4.91-.69,2.02-1.59,3.97-2.48,5.92-.08.22-.15.45-.23.67-.22.3-.47.71-.82.71-.44-.04-.39-.52-.28-.86.22-1.31.44-2.62.76-3.9.25-1.05.59-2.06.94-3.07.97-3.18,1.74-6.44,1.87-9.81.08-1.24.5-2.47.92-3.71.19-.56.63-1.16.07-1.87-.76,1.24-1.33,2.55-1.89,3.86-.31.9-.61,1.8-1.19,2.47-.18.19-.46.34-.62.15-.16-.19-.29-.49-.32-.75.1-.97.21-1.95.42-2.88.71-3.41.83-6.78.95-10.15.04-.11-.06-.15-.13-.3-.75.86-1.2,1.84-1.54,2.85-1.73,5.06-3.96,9.93-5.99,14.87-1.43,3.52-2.93,6.89-4.62,10.19-.41.86-.82,1.72-1.49,2.36-.18.19-.56.3-.76.23-.2-.07-.33-.37-.36-.64-.05-.52,0-1.01,0-2.02-.73,2.14-1.37,3.67-1.91,5.24-.73,2.14-1.76,4.16-2.7,6.22-.12.34-.33.64-.65.9-.18.19-.42.23-.62.15-.1-.04-.23-.34-.29-.49.01-.37.03-.75.14-1.09.59-3.07,1.08-6.18,2.02-9.25.58-1.69.95-3.45,1.42-5.17-.13-.3-.23-.34-.41-.15-.39.49-.7,1.39-1.37,1.01-.47-.3-.34-1.01-.25-1.61.14-2.1.63-4.19,1.22-6.26,1.79-5.92,3.48-11.87,5.28-17.79,1.41-4.79,2.92-9.55,4.13-14.42,1.76-6.82,4.23-13.37,6.49-20.01.35-1.01.83-2.1,1.38-3.03,1.47-2.62,3.04-3.56,5.35-2.97,1.05.26,2.07.63,3.04,1.12,1.08.52,2.12,1.16,3.16,1.79,1.45.79,2.11,2.17,2.07,4.3-.14,4.76-.28,9.51-.42,14.27-.12,5.02-.23,10.04-.35,15.05-.03.75.05,1.54.02,2.28.58-.04.53-.56.65-.9,2.08-8.09,4.66-16,7.45-23.83.42-1.24,1.05-2.4,1.67-3.56,1.14-1.99,2.67-2.81,4.37-2.44,1.26.33,2.47.78,3.65,1.34,1.08.52,2.12,1.16,3.16,1.79,1.71,1.01,2.18,2.32,1.68,4.79-.2.94-.45,1.98-.76,2.88-2.53,6.41-4.96,12.85-7.69,19.18-1.53,3.48-2.9,7.16-4.33,10.68-1.66,4.2-3.42,8.36-5.19,12.51-1.24,2.96-2.38,5.96-3.62,8.92-.97,2.17-2,4.2-2.94,6.26-.33.64-.66,1.27-1.1,1.87-.29.52-.63,1.16-1.17,1.09l-.22.3Z"/>
        <path class="cls-1" d="M276.06,598.9c-.17-.49-.33-1.11-.56-2.09-.59,4.01-.59,7.61-1.46,11.11-.19.94,0,2.39-1.08,2.29-.86-.09-.62-1.5-.65-2.34-.14-3.13-.29-6.26-.1-9.47.14-1.54.07-3.11.03-5.03-.39.68-.54,1.14-.79,1.48-.38.56-.91.51-1.06-.23-.16-.62-.31-1.35-.35-2.07-.25-1.94-.18-3.85-.12-5.76.32-5.84.65-11.68.97-17.51.1-1.07.2-2.14.3-3.21.27-5.24.43-10.5.59-15.75.16-4.06.64-8.08,1.01-12.12.18-1.9.35-3.8.53-5.7.11-1.19.33-2.36.76-3.52.73-2.08,2.03-3.27,3.78-3.46.87-.03,1.73.05,2.58.14,2.48.13,4.96.13,7.32.37,3,.3,6.12.49,8.9,1.96,5.16,2.67,7.88,8.33,7.67,15.38-.14,6.21-1.55,12.06-4.52,17.28-.53,1.03-.95,2.06-1.16,3.24-.6,2.93-1.61,5.71-2.73,8.47-.14.35-.4.8-.72.77-.43-.04-.49-.53-.56-1.01-.12-1.09-.23-2.18-.35-3.27-.07-.37-.25-.74-.48-.65-.22-.02-.45.19-.58.42-.14.35-.29.81-.32,1.17-.8,3.99-2.22,7.68-3.23,11.54-.36,1.52-.71,3.04-1.18,4.55-.02.24-.36.44-.58.42-.11-.01-.29-.39-.27-.62-.09-2.52-.07-5.04-.17-7.56,0-1.2-.1-2.41-.21-3.61-.04-.72.05-1.67-.69-1.87-.85-.2-1.04.73-1.32,1.43-.28.69-.45,1.39-.72,1.96-.41.92-.94.86-1.4-.02-.18-.38-.26-.74-.44-1.12-.19-.26-.52-.17-.66.17-.58,1.62-.85,3.39-1.13,5.16-.8,5.19-1.61,10.38-2.84,15.53-.21,1.06-.41,2.11-1.04,3.01-.25.33-.68.29-.86-.09l-.13.23ZM283.5,560.47c-.02.24.06.49.1,1.21,1.87-1.49,3.31-3.02,4.65-4.69.85-.99,1.18-2.28,1.41-3.57.57-2.7-1.06-4.9-3.5-4.3-.44.08-.69.41-.84.88-.15.46-.3.93-.35,1.4-.49,2.95-.98,5.89-1.36,8.85l-.13.23Z"/>
        <path class="cls-1" d="M344.79,588.57c-.31-1.89-.62-3.79-.95-5.92-.73.4-.81,1-1.11,1.49-1.09,1.97-2.17,3.94-3.72,5.34-.82.76-1.2,1.74-1.47,2.95-.43,2.17-.97,4.23-1.51,6.41-.1.24-.3.49-.52.39-.11,0-.22-.11-.33-.22-.13-.47-.26-.94-.39-1.41-.28-1.18-.55-2.36-.83-3.54-.28-1.3-.96-1.86-1.93-1.92-1.19-.17-1.4-.04-1.54,1.52-.05,1.08-.21,2.16-.27,3.24-.01,3.94-.36,7.78-.7,11.62-.06.84-.02,1.67-.09,2.51-.07.72-.14,1.44-.32,2.17-.1.24-.29.61-.51.62-.22.01-.55-.21-.67-.44-.25-.58-.38-1.17-.52-1.76-.64-4.14-1.29-8.29-1.93-12.43-.62-3.67-1.24-7.34-1.54-11.14-.04-.83-.29-1.54-.65-2.23s-.72-1.39-1.18-1.97c-.58-.8-.65-2.23-1.73-2.29-.6.87-.22,1.92-.28,2.88-.12,1.8-.4,2.77-.84,2.56-.78-.44-.72-1.51-.87-2.34-.32-2.01-.53-4.03-.85-6.04-.48-3.08-1.39-6.01-1.66-9.22-.17-1.3-.46-2.6-.52-3.91-.21-4.05-.41-8.1-.62-12.14-.24-6.79,1.17-12.96,3.9-18.6,1.86-3.8,4.54-6.1,7.82-7.36,1.7-.57,3.4-1.02,5.1-1.47,2.23-.6,4.41-.24,6.51.84,4.65,2.37,7.58,6.87,9.38,12.74.65,2.11,1.09,4.36,1.31,6.62.53,6.18.63,12.26-.36,18.29-.48,3.25-.42,6.59-.58,9.82-.27,5.27-.21,10.64-.8,15.93-.07.72-.03,1.44-.33,2.05-.19.49-.73.52-.97.05-.59-.92-.75-1.99-.91-3.05l-.03-.6ZM330.36,557.24c-.32.02-.66-.2-.99-.3-.43,2.17-.31,4.44-.42,6.59-.21,4.31.64,8.32,2.23,12.06.36.82.83,1.51,1.4,2.07,1.25,1.24,2.32,1.07,3.09-.65.68-1.47,1.02-3.16,1.26-4.85.3-2.52.5-5.04.8-7.57.29-2.76.04-5.5-.31-8.22-.17-1.3-.67-2.59-1.06-3.88-.13-.35-.37-.82-.68-.68-.21.13-.4.5-.39.74-.14,1.56-.27,3.12-.41,4.68-.15,1.2-.31,2.41-.46,3.61-.09.36-.29.73-.62.63-.22.01-.45-.33-.46-.57-.29-1.42-.58-2.83-.86-4.25-.29-1.42-.57-2.71-1.32-4.7-.12,1.8-.18,2.87-.34,3.96-.08.48-.27,1.09-.7,1.11l.23.23Z"/>
        <path class="cls-1" d="M376.24,594.25c-.25-.2-.33-.67-.86-.57.45,2.7.89,5.4,1.34,8.11.22,1.29.43,2.59.32,3.93-.05.37-.2.76-.54.7-.21.04-.46-.16-.61-.37-.16-.33-.33-.67-.39-1.02-.99-3.33-2.08-6.65-2.75-10.04-.21-1.29-.43-2.59-1.07-3.8-.44-.04-.24.53-.42.8-.33.66-.75.74-1.06.19-.29-.43-.47-.88-.66-1.33-.74-1.8-1.37-3.63-1.68-5.51-.62-3.76-1.56-7.47-2.29-11.2-.98-5.27-2.15-10.38-3.22-15.52-.67-3.39-1.55-6.74-2.22-10.13-.77-3.98-1.43-7.97-2.09-11.97-.27-1.64-.54-3.29-.71-4.95-.11-1.31-.22-2.62-.22-3.95,0-2.66.95-4.16,3.03-4.78,1.15-.33,2.32-.53,3.5-.62,1.08-.07,2.18-.03,3.28.02,2.07,0,3.1.9,3.84,3.43.26.92.54,1.96.7,2.9.66,5.33,1.32,10.65,1.88,16,.41,3.8.71,7.62,1.12,11.41.29,3.09.59,6.19.99,9.26.82,6.27,1.42,12.57,2.03,18.87.18,2.39.25,4.8.32,7.2.03.84-.05,1.7-.14,2.45-.08.86-.61.95-1.15.33l-.3.17Z"/>
        <path class="cls-1" d="M396.97,557.05c-.3-.28-.46-.86-1.01-.82-.43.87-.02,1.99-.11,2.88-.08.52-.06,1.01-.58,1.16-.42.12-.82-.13-1.15-.53-1.62-2.25-3.04-4.56-4-7.25-.16-.57-.31-1.15-.58-1.69-.71-1.78-1.32-3.58-2.41-5.12-3.91-5.29-4.52-11.19-3.4-17.34,1.11-6.15,4.1-10.38,8.55-12.93,3.48-2.02,7.19-2.37,11.1-1.16.61.19,1.15.53,1.66.75,1.42.7,2.21,1.95,2.44,3.99.31,4,.52,8.03,1.17,12.05.36,2.13.61,4.28.73,6.36.04.98.42,2.35-.65,2.54-.76.1-1.07-1.05-1.5-1.79-.49-.97-.98-1.94-1.47-2.91-.66.44-.31,1.33-.63,1.8-.25.32-.56.41-.86.13-.53-.71-.96-1.45-1.49-2.16-.4-.63-.98-.7-1.5-.18-.63.56-.86,1.37-.46,2,.36.51.83.99,1.27,1.36,1.78,1.58,3.66,3.14,5.72,4.14,2.44,1.14,4.62,2.98,6.59,5.25,2.13,2.47,3.39,5.45,3.99,8.86.78,4.48.33,8.58-1.07,12.46-.51,1.39-.72,2.69-.62,4.27.48,5.44,1.2,10.93,2.13,16.36.13.46.28,1.03.07,1.47-.07.15-.28.21-.41.12-.4-.25-.56-.83-.69-1.28-1.4-4.3-3.18-8.36-4.48-12.69-.1-.34-.19-.69-.36-.89-.2-.31-.47-.48-.78-.39-1.11.45-1.88,1.3-1.89,2.91.07,1.47.03,2.97,0,4.47,0,.37-.15.66-.39.61-.24-.05-.51-.22-.68-.42-.17-.2-.26-.54-.43-.74-.46-.86-.92-1.71-1.48-2.54-.2-.31-.5-.6-.8-.88-.33-.4-1.06-.18-1.14.34-.05.63-.1,1.27-.05,1.87.12,2.07.34,4.11.46,6.19,0,.37-.02.75-.03,1.12,0,.37-.02.75-.3.96-.38.24-.61-.19-.81-.51-.26-.54-.52-1.08-.68-1.66-.9-2.46-2.39-4.63-3.59-7-.43-.74-1-1.19-1.57-1.64-1.14-.9-1.93-2.16-2.55-3.59-.65-1.55-1.29-3.09-1.56-4.87-.45-2.47.24-4.04,2.09-4.21,1.75-.14,3.25-1.21,4.91-1.69,1.04-.31,1.68-1.24,2.15-2.37.4-.99.22-2.05-.62-2.67-.84-.62-1.65-1.12-2.46-1.63-.4-.25-.81-.5-1.21-.76-.57-.45-1.02-.44-1.38.28-.5,1.02-.74.96-1.51.2l.29-.58Z"/>
        <path class="cls-1" d="M464.18,554.54c-.95-1.65-1.89-3.3-2.93-5.17-.55.65-.41,1.24-.52,1.81-.33,2.24-.66,4.49-1.62,6.37-.5,1.02-.52,2.07-.35,3.3.35,2.19.56,4.31.81,6.54,0,.26-.11.57-.35.55-.1.05-.24-.02-.39-.08-.28-.39-.57-.78-.86-1.17-.66-1-1.33-2-1.99-2.99-.71-1.11-1.54-1.38-2.47-1.08-1.17.28-1.33.48-.91,1.99.32,1.02.55,2.1.87,3.12,1.35,3.68,2.36,7.4,3.36,11.11.23.81.56,1.57.79,2.38.18.7.36,1.4.45,2.14,0,.26-.06.68-.26.77-.2.09-.59,0-.78-.16-.43-.45-.76-.95-1.1-1.45-2.03-3.63-4.07-7.26-6.1-10.88-1.85-3.19-3.69-6.39-5.29-9.82-.33-.76-.81-1.32-1.38-1.84-.58-.52-1.15-1.03-1.78-1.4-.82-.53-1.38-1.84-2.41-1.49-.26,1.04.45,1.88.73,2.8.51,1.72.59,2.73.1,2.7-.88-.12-1.2-1.14-1.63-1.86-.99-1.76-1.89-3.56-2.88-5.32-1.51-2.69-3.37-5.1-4.74-7.99-.61-1.15-1.33-2.26-1.84-3.46-1.59-3.7-3.19-7.4-4.78-11.1-2.57-6.25-3.39-12.53-2.79-18.82.42-4.24,2.13-7.38,4.76-9.78,1.39-1.16,2.82-2.22,4.25-3.28,1.88-1.39,4.03-1.87,6.37-1.64,5.16.48,9.45,3.59,13.16,8.39,1.34,1.73,2.52,3.66,3.51,5.69,2.63,5.57,4.83,11.21,5.99,17.2.68,3.21,1.89,6.31,2.86,9.38,1.57,5.02,3.48,10.01,4.76,15.16.18.7.46,1.35.4,2.03,0,.53-.5.75-.89.41-.87-.64-1.39-1.58-1.91-2.51l-.23-.54ZM439.88,530.67c-.3.14-.68.06-1.03.08.35,2.19,1.24,4.26,1.89,6.31,1.29,4.1,3.48,7.53,6.25,10.42.62.63,1.3,1.1,2.02,1.41,1.6.7,2.53.13,2.66-1.76.13-1.62-.14-3.33-.5-4.99-.59-2.47-1.28-4.89-1.87-7.36-.68-2.69-1.86-5.14-3.13-7.56-.61-1.15-1.52-2.17-2.33-3.23-.24-.28-.62-.63-.87-.38-.15.2-.21.62-.11.84l1.24,4.52c.27,1.18.54,2.36.82,3.54.04.37-.01.79-.36.82-.2.09-.53-.14-.63-.36-.76-1.22-1.52-2.43-2.28-3.65-.76-1.22-1.47-2.32-2.86-3.9.51,1.72.83,2.75,1.05,3.82.09.48.13,1.12-.27,1.3l.29.13Z"/>
        <path class="cls-1" d="M519.91,532.8c-.5.63-.96-.49-1.99-.49,1.71,2.69,3.22,5.08,4.74,7.47.63.99,1.17,2.05,1.45,3.29.04.26-.02.58-.13.81-.21.28-.58.11-.86-.13-1.22-1.31-2.44-2.62-3.56-3.99-1.38-1.77-2.74-3.7-4.09-5.63-.66-.83-1.23-1.73-2-2.34-.3.35-.04.74-.1,1.07-.04.74-.49,1.05-1.05.58-.62-.57-1.25-1.15-1.78-1.78-1.41-1.61-2.79-3.38-3.9-5.33-.98-1.75-2.35-2.68-3.91-3.32-.15-.04-.4-.01-.49.05-.09.06-.05.32,0,.42.68,1.68,1.54,3.23,2.49,4.73,1.14,1.79,2.1,3.71,3.06,5.62.13.2.25.4.38.6.1.36.26.82.06,1.1-.3.35-.64,0-.83-.29-.88-.97-1.75-1.94-2.54-2.98-.66-.83-1.23-1.73-1.8-2.63-1.86-2.73-3.9-5.33-6.42-7.47-.9-.81-1.6-1.91-2.29-3-.32-.5-.52-1.22-1.4-1.18.49,1.38,1.16,2.63,1.83,3.89.51.8,1.01,1.59,1.19,2.47.04.26-.02.58-.26.61-.24.02-.55-.05-.77-.19-.69-.67-1.37-1.35-1.97-2.08-2.19-2.64-4.71-4.78-7.23-6.91-.06-.1-.15-.04-.31-.08.21,1.14.69,2.1,1.26,3,2.84,4.48,5.24,9.27,7.82,13.93,1.84,3.31,3.53,6.58,5.05,9.97.42.86.83,1.72.91,2.66.04.26-.11.64-.29.77-.18.12-.49.05-.7-.09-.43-.28-.78-.61-1.55-1.22,1.2,1.89,2,3.35,2.88,4.74,1.2,1.89,2.13,3.97,3.16,5.98.19.3.29.66.3,1.08.04.26-.08.48-.26.61-.09.06-.4-.01-.55-.05-.28-.24-.56-.47-.75-.77-2-2.34-4.1-4.62-5.89-7.25-.95-1.49-2.08-2.86-3.12-4.3-.31-.08-.4-.01-.36.25.14.62.64,1.42-.05,1.75-.51.21-.98-.33-1.39-.76-1.52-1.39-2.84-3.05-4.07-4.79-3.47-5.05-7.03-10.05-10.49-15.1-2.84-4.06-5.58-8.18-8.6-12.11-4.18-5.57-7.73-11.56-11.46-17.44-.57-.9-1.11-1.95-1.5-2.97-1.13-2.8-.9-4.67.95-6.22.84-.72,1.73-1.33,2.7-1.84,1.05-.58,2.17-1.05,3.28-1.53,1.47-.72,2.94-.44,4.56.88,3.57,2.98,7.14,5.97,10.72,8.95,3.79,3.12,7.58,6.24,11.36,9.37.56.47,1.21.89,1.77,1.36.32-.51-.11-.78-.3-1.08-4.97-6.6-9.48-13.51-13.82-20.54-.7-1.09-1.21-2.31-1.73-3.53-.84-2.14-.55-3.91.76-5.09,1.01-.84,2.09-1.57,3.24-2.21,1.05-.58,2.17-1.05,3.28-1.53,1.81-.81,3.1-.4,4.69,1.5.6.74,1.26,1.57,1.76,2.37,3.4,5.96,6.89,11.86,10.1,17.94,1.75,3.37,3.75,6.72,5.59,10.03,2.22,3.91,4.36,7.87,6.49,11.84,1.53,2.81,3.15,5.56,4.67,8.37,1.08,2.11,2.02,4.19,3.04,6.2.29.66.58,1.32.78,2.04.23.56.52,1.22.13,1.63l.1.36Z"/>
        <path class="cls-1" d="M568.54,489.65c-.48-.16-1.05-.4-1.95-.8,2.73,2.91,5.48,5.09,7.65,7.93.6.73,1.84,1.45,1.11,2.27-.58.66-1.52-.39-2.19-.88-2.49-1.77-4.98-3.55-7.33-5.65-1.1-1.05-2.34-1.94-3.84-3.07.29.73.55,1.14.66,1.54.2.65-.16,1.06-.81.74-.57-.24-1.22-.56-1.8-.96-1.64-.96-3.07-2.18-4.49-3.39-4.29-3.8-8.57-7.59-12.86-11.39-.76-.73-1.52-1.45-2.28-2.18-3.86-3.39-7.8-6.7-11.74-10.01-3.02-2.58-5.82-5.41-8.69-8.16-1.35-1.29-2.7-2.59-4.06-3.88-.84-.81-1.62-1.7-2.24-2.75-1.16-1.87-1.28-3.66-.37-5.22.5-.74,1.08-1.39,1.67-2.05,1.59-1.97,3.1-4.02,4.71-5.83,2.05-2.3,4.08-4.76,6.89-6.17,5.17-2.65,11.16-1.48,16.44,2.96,4.69,3.87,8.33,8.57,10.53,14.18.47,1.06,1.01,2.03,1.78,2.92,1.89,2.27,3.41,4.78,4.85,7.38.18.33.37.81.15,1.06-.29.33-.7.09-1.11-.15-.91-.56-1.81-1.13-2.72-1.69-.33-.16-.73-.24-.79,0-.15.16-.12.49-.03.73.18.33.45.73.7.97,2.58,3.08,4.55,6.48,6.9,9.64.95,1.21,1.9,2.43,2.78,3.73.17.16.12.57-.03.74-.07.08-.47,0-.64-.16-1.99-1.45-3.91-2.98-5.91-4.43-.92-.73-1.91-1.37-2.9-2.01-.58-.4-1.26-1.05-1.85-.56-.67.58-.07,1.3.3,1.95.36.65.79,1.22,1.07,1.79.46.89.09,1.3-.86,1.15-.4-.08-.73-.24-1.13-.32-.32,0-.45.33-.27.65.89,1.46,2.09,2.75,3.28,4.05,3.5,3.8,7,7.61,10.2,11.74.69.81,1.37,1.62,1.69,2.68.11.41-.18.74-.58.66l.1.24ZM543.54,460.26c.17.16.41.24.99.64-.01-2.45-.32-4.56-.79-6.68-.25-1.3-1.03-2.36-1.89-3.33-1.72-2.11-4.4-2.08-5.42.29-.21.41-.1.82.16,1.22s.53.81.87,1.13c1.97,2.19,3.93,4.37,5.97,6.47l.1.24Z"/>
        <path class="cls-1" d="M581.56,425.99c1.13,1.24,2.32,2.38,3.82,3.89.49-1.55.39-2.86.39-4.09-.1-1.71.58-2.72,2.3-2.97,1.56-.23,2.94.23,3.94,1.65,1.19,1.55,2.79,2.72,4.32,3.98,2.13,1.83,4.14,3.85,6.2,5.77.28.21.6.57.25.87-.28.21-.62.09-.97-.02-.97-.44-1.94-.87-2.91-1.31-.62-.32-1.31-.55-1.91-.71-.34-.11-.78.11-.78.52.07,1.55.14,3.11.3,4.73,0,.41.41.85.72,1.21.85,1.03,1.79,2.13,2.63,3.16.41.44.75.96,1.01,1.42.34.53-.09,1.17-.68,1-.78-.3-1.66-.66-2.44-.96-1.13-.41-2.25-.83-3.38-1.24-.09-.07-.31.05-.37.14-.03.25-.03.66.16.8.41.43.88.78,1.35,1.12,1.5,1.1,3.01,2.2,4.51,3.3,1.88,1.37,3.35,3.14,5.11,4.69.28.21.44.59.66.89.03.16,0,.41-.06.5-.22.11-.5.32-.75.27-.59-.16-1.28-.39-1.91-.71-4.69-2.2-9.44-4.31-13.92-7.04-1.19-.73-2.31-1.15-3.47-.9-.15.85.69,1.05,1.04,1.58.75.96,2.28,1.4,2.16,2.81-1.12.41-2.09-.44-3.12-.78-1.91-.71-3.66-1.86-5.41-3-1.94-1.28-4-2.38-6.01-3.57-1-.6-2-1.19-2.94-1.88-9.3-6.8-18.6-13.6-27.89-20.4-1.41-1.03-2.82-2.06-3.95-3.3-2.04-2.17-2.42-3.68-1.34-5.9.28-.62.65-1.16,1.02-1.71,2.94-4.54,6.27-8.81,9.59-13.08,1.21-1.57,2.83-1.89,4.93-1.04,1.47.53,2.91,1.31,4.16,2.36,2.04,1.76,4.07,3.53,5.99,5.47,1.88,1.78,3.54,3.68,5.21,5.58.5.5.94,1.1,1.22,1.72.47.75.04,1.39-.87,1.28-.41-.02-.75-.14-1.09-.25-.78-.3-1.56-.6-2.34-.89-.53-.25-1.19-.73-1.59-.34-.62.5.13,1.05.41,1.67.13.23.25.46.31.78.16.39-.03.66-.4.8-.16.02-.31.05-.47.07-.75-.14-1.56-.6-2.12-.19-.9.71-1.43,1.69-1.77,2.81-.09.34.07.73.35.94,1.19,1.14,2.38,2.29,3.64,3.34.66.48,1.28.39,1.75-.09.59-.66,1.09-1.39,1.58-2.12.56-.82,1.21-1.58,1.99-2.1.84-.62,1.87-.68,2.97-.02,1.81,1.05,3.51,2.29,5.07,3.71.41.43.91.94,1.01,1.42.38,1.92,1.86,3.27,3.02,4.67l-.22-.3ZM583.65,431.61c.5-.32.53-.98-.41-1.67-.97-.44-2.31-1.15-3.63-1.7-.63-.32-1.31-.55-1.91-.71-.59-.16-.94.14-1.15.66-.22.52.13,1.05.6,1.39,1,.6,2.06,1.1,3.07,1.7,1.25.64,2.34.48,3.37,0l.06.32Z"/>
        <path class="cls-1" d="M601.17,383.85c-.31-.16-.67-.22-1.59-.44,1.93,1.86,3.89,2.86,5.65,4.01,3.73,2.4,7.5,4.71,11.23,7.11,1.4.84,2.74,1.78,4.14,2.61,1.45.99,2.95,1.88,4.45,2.77.31.16.62.32.93.47.26.26.63.57.48.87-.1.2-.5.24-.75.24-1.02-.02-2.09-.19-3.1-.22-.91.03-1.82.07-2.74.1-.4.04-.49.5-.23.75.58.67,1.4,1.09,2.18,1.61,1.24.89,2.59,1.82,3.55,3.06.32.41.03,1.01-.48,1-.61-.06-1.32-.18-1.99-.39-1.23-.38-2.46-.76-3.69-1.14-.21-.1-.56-.16-.6.19,0,.25.12.56.28.76,1.79,1.91,3.91,3.37,6.08,4.73.78.52,1.7,1,2.39,1.72.06.15.17.46.12.56-.05.1-.35.2-.45.14-.67-.22-1.33-.43-2-.65l-19.41-7.68c-3.54-1.44-7.09-2.88-10.63-4.31-4.11-1.6-8.17-3.3-12.28-4.9-4.01-1.55-8.01-3.1-12.02-4.65-3.8-1.44-7.6-2.89-11.39-4.08-.21-.11-.41-.21-.62-.32-1.69-.49-2.16-1.11-1.76-2.77.26-1.36.73-2.62,1.51-3.71.92-1.4,1.74-2.85,2.45-4.35.19-.4.38-.8.67-1.15.59-.7,1.44-.88,2.47-.61.67.22,1.28.53,1.9.85,1.55.79,3.09,1.58,4.64,2.37,4.96,2.78,10.25,4.86,15.34,7.34.21.1.46.11.71.12.29-.6-.38-.82-.69-.98-5.54-3.45-10.93-7.2-16.32-10.96-2.96-2.13-3.37-3.96-2.34-6.68.51-1.36,1.34-2.55,2.53-3.44.94-.64,1.95-.87,3.28-.44,2.31.81,4.62,1.61,6.88,2.52,4.42,1.76,8.83,3.52,13.25,5.28.31.16.67.47,1.13.33-2.95-1.88-5.9-3.76-8.85-5.64-3.32-2.19-6.63-4.38-10.09-6.28-.52-.26-.98-.63-1.45-.99-1.87-1.45-2.53-3.04-2.13-4.95.44-2.27,1.34-4.17,2.81-5.91.25-.25.49-.5.74-.74q1.71-1.99,4.36-.01c3.69,2.76,7.23,5.56,10.96,8.22,9.34,6.77,18.79,13.59,28.28,20.31,4.72,3.28,9.53,6.37,14.35,9.45,1.86,1.2,3.97,2.15,6.03,3.21l2.17,1.11c.31.16.57.42.63.82.11.31-.44.4-1.21.13-2.67-1.12-5.34-1.98-8.1-2.64-1.99-.39-3.97-.54-5.84-.37-.55.09-.69.64-.22,1.01.94.73,1.87,1.45,2.81,2.18.94.73,1.92,1.35,2.46,2.38.11.31-.13.81-.48.75-.61-.06-1.22-.13-1.78-.29-1.23-.38-2.46-.76-3.69-1.14-.77-.27-.92-.22-1.09.69-.09.45-.29.6-.64.54-.46-.11-.92-.22-1.33-.43-3.96-1.65-8.02-3.35-11.97-5-3.34-1.33-6.68-2.67-10.02-4l.15-.05Z"/>
      </g>
    </g>
  </g>
</svg>