<?xml version="1.0" encoding="UTF-8" standalone="no"?>
<!DOCTYPE svg PUBLIC "-//W3C//DTD SVG 1.1//EN" "http://www.w3.org/Graphics/SVG/1.1/DTD/svg11.dtd">
<!-- Created with Vectornator (http://vectornator.io/) -->
<svg height="100%" stroke-miterlimit="10" style="fill-rule:nonzero;clip-rule:evenodd;stroke-linecap:round;stroke-linejoin:round;" version="1.1" viewBox="0 0 663 664" width="100%" xml:space="preserve" xmlns="http://www.w3.org/2000/svg" xmlns:vectornator="http://vectornator.io" xmlns:xlink="http://www.w3.org/1999/xlink">
<defs/>
<g id="Layer-2" vectornator:layerName="Layer 2">
<path d="M301 106C286.333 108 272.167 111.333 258.5 116C244.833 120.667 231.167 127 217.5 135C203.833 143 190.5 153 177.5 165C164.5 177 153.667 189.167 145 201.5C136.333 213.833 130.167 223.667 126.5 231C122.833 238.333 119.5 246.167 116.5 254.5C113.5 262.833 110.667 273.5 108 286.5C105.333 299.5 103.833 313.167 103.5 327.5C103.167 341.833 104.5 357.333 107.5 374C110.5 390.667 113.5 403.167 116.5 411.5C119.5 419.833 122.833 427.667 126.5 435C130.167 442.333 135.5 451.167 142.5 461.5C149.5 471.833 158 482.167 168 492.5C178 502.833 188.333 511.833 199 519.5C209.667 527.167 220.833 533.833 232.5 539.5C244.167 545.167 257.333 550 272 554C286.667 558 302.167 560.5 318.5 561.5C334.833 562.5 350.167 562 364.5 560C378.833 558 392.5 554.833 405.5 550.5C418.5 546.167 432 540 446 532C460 524 472.833 514.833 484.5 504.5C496.167 494.167 506.333 483.333 515 472C523.667 460.667 531.5 447.833 538.5 433.5C545.5 419.167 551 403.667 555 387C559 370.333 561.167 353.833 561.5 337.5C561.833 321.167 560.833 306.333 558.5 293C556.167 279.667 553 267.333 549 256C545 244.667 539.167 232.333 531.5 219C523.833 205.667 514.667 193 504 181C493.333 169 482 158.5 470 149.5C458 140.5 445 132.667 431 126C417 119.333 402.5 114.167 387.5 110.5C372.5 106.833 358 104.667 344 104C330 103.333 315.667 104 301 106Z" fill="#ffffff" fill-rule="evenodd" opacity="1" stroke="none" vectornator:blendMode="luminosity" vectornator:layerName="path"/>
<path d="M244.5 406.5C242.167 408.833 241 411.333 241 414C241 416.667 243.5 420.5 248.5 425.5C253.5 430.5 261 435.833 271 441.5C281 447.167 291.5 451.333 302.5 454C313.5 456.667 323.5 458 332.5 458C341.5 458 350.667 457 360 455C369.333 453 379.667 449 391 443C402.333 437 410.667 431.333 416 426C421.333 420.667 423.833 416.167 423.5 412.5C423.167 408.833 422.167 406.333 420.5 405C418.833 403.667 416.5 403 413.5 403C410.5 403 406.667 405.167 402 409.5C397.333 413.833 391.167 418.167 383.5 422.5C375.833 426.833 367.5 430.167 358.5 432.5C349.5 434.833 341 436 333 436C325 436 316 434.667 306 432C296 429.333 287.333 425.833 280 421.5C272.667 417.167 267.167 413.167 263.5 409.5C259.833 405.833 256.333 403.833 253 403.5C249.667 403.167 246.833 404.167 244.5 406.5Z" fill="#000000" fill-rule="evenodd" opacity="1" stroke="none" vectornator:blendMode="luminosity" vectornator:layerName="path"/>
<path d="M300.874 86.3651C282.54 88.6984 265.374 92.6984 249.374 98.3651C233.374 104.032 221.374 109.032 213.374 113.365C205.374 117.698 197.541 122.532 189.874 127.865C182.206 133.198 172.374 141.532 160.374 152.865C148.374 164.198 137.874 176.198 128.874 188.865C119.874 201.532 112.207 214.532 105.874 227.865C99.5402 241.198 94.2068 256.532 89.8735 273.865C85.5402 291.198 83.0402 308.032 82.3735 324.365C81.7068 340.698 82.5402 356.698 84.8735 372.365C87.2068 388.032 90.8735 403.032 95.8735 417.365C100.874 431.698 107.874 446.532 116.874 461.865C125.874 477.198 136.541 491.532 148.874 504.865C161.206 518.198 173.874 529.532 186.874 538.865C199.874 548.198 212.706 555.865 225.374 561.865C238.041 567.865 250.706 572.698 263.374 576.365C276.04 580.032 291.54 582.698 309.874 584.365C328.207 586.032 345.874 585.865 362.874 583.865C379.874 581.865 396.374 578.198 412.374 572.865C428.374 567.532 443.374 560.865 457.374 552.865C471.374 544.865 484.874 535.198 497.874 523.865C510.874 512.532 522.54 500.032 532.874 486.365C543.207 472.698 552.04 458.198 559.374 442.865C566.707 427.532 572.374 411.865 576.374 395.865C580.374 379.865 582.707 362.532 583.374 343.865C584.04 325.198 583.04 308.032 580.374 292.365C577.707 276.698 573.707 261.698 568.374 247.365C563.04 233.032 556.374 219.198 548.374 205.865C540.374 192.532 531.04 179.865 520.374 167.865C509.707 155.865 498.04 145.032 485.374 135.365C472.707 125.698 459.374 117.365 445.374 110.365C431.374 103.365 416.707 97.6984 401.374 93.3651C386.04 89.0318 370.04 86.1984 353.374 84.8651C336.707 83.5318 319.207 84.0318 300.874 86.3651Z" fill="#000000" fill-rule="evenodd" opacity="1" stroke="none" vectornator:layerName="path"/>
<path d="M301.374 107.865C286.707 109.865 272.54 113.198 258.874 117.865C245.206 122.532 231.541 128.865 217.874 136.865C204.206 144.865 190.874 154.865 177.874 166.865C164.874 178.865 154.041 191.032 145.374 203.365C136.706 215.698 130.541 225.532 126.874 232.865C123.207 240.198 119.874 248.032 116.874 256.365C113.874 264.698 111.041 275.365 108.374 288.365C105.707 301.365 104.207 315.032 103.874 329.365C103.541 343.698 104.874 359.198 107.874 375.865C110.874 392.532 113.874 405.032 116.874 413.365C119.874 421.698 123.207 429.532 126.874 436.865C130.541 444.198 135.874 453.032 142.874 463.365C149.874 473.698 158.374 484.032 168.374 494.365C178.374 504.698 188.706 513.698 199.374 521.365C210.041 529.032 221.206 535.698 232.874 541.365C244.541 547.032 257.707 551.865 272.374 555.865C287.04 559.865 302.54 562.365 318.874 563.365C335.207 564.365 350.54 563.865 364.874 561.865C379.207 559.865 392.874 556.698 405.874 552.365C418.874 548.032 432.374 541.865 446.374 533.865C460.374 525.865 473.207 516.698 484.874 506.365C496.54 496.032 506.707 485.198 515.374 473.865C524.04 462.532 531.874 449.698 538.874 435.365C545.874 421.032 551.374 405.532 555.374 388.865C559.374 372.198 561.54 355.698 561.874 339.365C562.207 323.032 561.207 308.198 558.874 294.865C556.54 281.532 553.374 269.198 549.374 257.865C545.374 246.532 539.54 234.198 531.874 220.865C524.207 207.532 515.04 194.865 504.374 182.865C493.707 170.865 482.374 160.365 470.374 151.365C458.374 142.365 445.374 134.532 431.374 127.865C417.374 121.198 402.874 116.032 387.874 112.365C372.874 108.698 358.374 106.532 344.374 105.865C330.374 105.198 316.04 105.865 301.374 107.865Z" fill="#ffffff" fill-rule="evenodd" opacity="1" stroke="none" vectornator:layerName="path"/>
<path d="M310.874 133.865C298.54 135.198 285.54 138.032 271.874 142.365C258.207 146.698 245.706 152.032 234.374 158.365C223.041 164.698 211.206 173.365 198.874 184.365C186.541 195.365 176.541 206.198 168.874 216.865C161.206 227.532 154.874 238.198 149.874 248.865C144.874 259.532 140.706 271.365 137.374 284.365C134.041 297.365 132.041 311.032 131.374 325.365C130.706 339.698 131.041 351.865 132.374 361.865C133.706 371.865 136.374 383.198 140.374 395.865C144.374 408.532 148.206 418.532 151.874 425.865C155.541 433.198 159.706 440.365 164.374 447.365C169.041 454.365 175.874 462.698 184.874 472.365C193.874 482.032 203.374 490.532 213.374 497.865C223.374 505.198 233.874 511.532 244.874 516.865C255.874 522.198 266.54 526.365 276.874 529.365C287.207 532.365 299.707 534.532 314.374 535.865C329.04 537.198 343.374 537.032 357.374 535.365C371.374 533.698 384.04 531.032 395.374 527.365C406.707 523.698 418.874 518.198 431.874 510.865C444.874 503.532 457.374 494.365 469.374 483.365C481.374 472.365 491.207 461.365 498.874 450.365C506.54 439.365 513.207 427.198 518.874 413.865C524.54 400.532 528.707 386.865 531.374 372.865C534.04 358.865 535.374 346.198 535.374 334.865C535.374 323.532 534.04 310.865 531.374 296.865C528.707 282.865 524.54 269.198 518.874 255.865C513.207 242.532 507.374 231.365 501.374 222.365C495.374 213.365 487.874 204.198 478.874 194.865C469.874 185.532 460.207 177.198 449.874 169.865C439.54 162.532 428.54 156.198 416.874 150.865C405.207 145.532 394.207 141.532 383.874 138.865C373.54 136.198 361.874 134.365 348.874 133.365C335.874 132.365 323.207 132.532 310.874 133.865Z" fill="#000000" fill-rule="evenodd" opacity="1" stroke="none" vectornator:layerName="path"/>
<path d="M309.374 155.865C299.374 157.198 289.04 159.532 278.374 162.865C267.707 166.198 256.707 171.032 245.374 177.365C234.041 183.698 223.041 191.698 212.374 201.365C201.706 211.032 192.541 221.365 184.874 232.365C177.206 243.365 171.041 254.532 166.374 265.865C161.706 277.198 158.374 287.532 156.374 296.865C154.374 306.198 153.206 317.198 152.874 329.865C152.541 342.532 153.541 355.198 155.874 367.865C158.206 380.532 161.706 392.532 166.374 403.865C171.041 415.198 176.374 425.365 182.374 434.365C188.374 443.365 195.206 451.865 202.874 459.865C210.541 467.865 218.206 474.698 225.874 480.365C233.541 486.032 242.374 491.365 252.374 496.365C262.374 501.365 273.54 505.532 285.874 508.865C298.207 512.198 310.54 514.198 322.874 514.865C335.207 515.532 346.54 515.198 356.874 513.865C367.207 512.532 378.374 509.865 390.374 505.865C402.374 501.865 414.374 496.198 426.374 488.865C438.374 481.532 449.04 473.365 458.374 464.365C467.707 455.365 475.374 446.532 481.374 437.865C487.374 429.198 493.04 418.698 498.374 406.365C503.707 394.032 507.54 382.032 509.874 370.365C512.207 358.698 513.374 346.865 513.374 334.865C513.374 322.865 512.207 311.032 509.874 299.365C507.54 287.698 503.707 275.698 498.374 263.365C493.04 251.032 487.374 240.532 481.374 231.865C475.374 223.198 468.54 215.032 460.874 207.365C453.207 199.698 445.374 193.032 437.374 187.365C429.374 181.698 420.04 176.365 409.374 171.365C398.707 166.365 388.04 162.532 377.374 159.865C366.707 157.198 355.207 155.532 342.874 154.865C330.54 154.198 319.374 154.532 309.374 155.865Z" fill="#ffffff" fill-rule="evenodd" opacity="1" stroke="none" vectornator:layerName="path"/>
<path d="M365.623 242.401C363.623 244.068 362.623 246.568 362.623 249.901C362.623 253.234 366.29 258.901 373.623 266.901C380.956 274.901 381.123 282.234 374.123 288.901C367.123 295.568 363.456 300.901 363.123 304.901C362.79 308.901 363.456 311.734 365.123 313.401C366.79 315.068 369.29 315.901 372.623 315.901C375.956 315.901 381.623 312.234 389.623 304.901C397.623 297.568 404.956 297.401 411.623 304.401C418.29 311.401 422.456 315.234 424.123 315.901C425.79 316.568 427.79 316.734 430.123 316.401C432.456 316.068 434.456 315.068 436.123 313.401C437.79 311.734 438.623 309.234 438.623 305.901C438.623 302.568 434.956 296.901 427.623 288.901C420.29 280.901 420.123 273.568 427.123 266.901C434.123 260.234 437.623 254.734 437.623 250.401C437.623 246.068 436.79 243.234 435.123 241.901C433.456 240.568 431.123 239.901 428.123 239.901C425.123 239.901 419.623 243.568 411.623 250.901C403.623 258.234 396.29 258.401 389.623 251.401C382.956 244.401 377.79 240.734 374.123 240.401C370.456 240.068 367.623 240.734 365.623 242.401Z" fill="#000000" fill-rule="evenodd" opacity="1" stroke="none" vectornator:layerName="path 1"/>
<path d="M230.374 243.365C228.374 245.032 227.374 247.532 227.374 250.865C227.374 254.198 231.041 259.865 238.374 267.865C245.706 275.865 245.874 283.198 238.874 289.865C231.874 296.532 228.206 301.865 227.874 305.865C227.541 309.865 228.206 312.698 229.874 314.365C231.541 316.032 234.041 316.865 237.374 316.865C240.706 316.865 246.374 313.198 254.374 305.865C262.374 298.532 269.707 298.365 276.374 305.365C283.04 312.365 287.207 316.198 288.874 316.865C290.54 317.532 292.54 317.698 294.874 317.365C297.207 317.032 299.207 316.032 300.874 314.365C302.54 312.698 303.374 310.198 303.374 306.865C303.374 303.532 299.707 297.865 292.374 289.865C285.04 281.865 284.874 274.532 291.874 267.865C298.874 261.198 302.374 255.698 302.374 251.365C302.374 247.032 301.54 244.198 299.874 242.865C298.207 241.532 295.874 240.865 292.874 240.865C289.874 240.865 284.374 244.532 276.374 251.865C268.374 259.198 261.04 259.365 254.374 252.365C247.706 245.365 242.541 241.698 238.874 241.365C235.206 241.032 232.374 241.698 230.374 243.365Z" fill="#000000" fill-rule="evenodd" opacity="1" stroke="none" vectornator:layerName="path"/>
<path d="M244.874 408.365C242.541 410.698 241.374 413.198 241.374 415.865C241.374 418.532 243.874 422.365 248.874 427.365C253.874 432.365 261.374 437.698 271.374 443.365C281.374 449.032 291.874 453.198 302.874 455.865C313.874 458.532 323.874 459.865 332.874 459.865C341.874 459.865 351.04 458.865 360.374 456.865C369.707 454.865 380.04 450.865 391.374 444.865C402.707 438.865 411.04 433.198 416.374 427.865C421.707 422.532 424.207 418.032 423.874 414.365C423.54 410.698 422.54 408.198 420.874 406.865C419.207 405.532 416.874 404.865 413.874 404.865C410.874 404.865 407.04 407.032 402.374 411.365C397.707 415.698 391.54 420.032 383.874 424.365C376.207 428.698 367.874 432.032 358.874 434.365C349.874 436.698 341.374 437.865 333.374 437.865C325.374 437.865 316.374 436.532 306.374 433.865C296.374 431.198 287.707 427.698 280.374 423.365C273.04 419.032 267.54 415.032 263.874 411.365C260.207 407.698 256.707 405.698 253.374 405.365C250.041 405.032 247.206 406.032 244.874 408.365Z" fill="#000000" fill-rule="evenodd" opacity="1" stroke="none" vectornator:layerName="path"/>
<path d="M410.764 252.962" fill="#000000" fill-rule="nonzero" opacity="1" stroke="#000000" stroke-linecap="butt" stroke-linejoin="miter" stroke-width="0.1" vectornator:layerName="Curve 2"/>
<path d="M412.861 252.774" fill="#000000" fill-rule="nonzero" opacity="1" stroke="#000000" stroke-linecap="butt" stroke-linejoin="miter" stroke-width="0.1" vectornator:layerName="Curve 3"/>
</g>
</svg>
